<?xml version="1.0" encoding="UTF-8"?>
<svg version="1.1" xmlns="http://www.w3.org/2000/svg" width="512" height="512">
<path d="M0 0 C1.45132828 0.00081573 1.45132828 0.00081573 2.93197632 0.00164795 C18.49714543 0.04177553 33.3929744 0.92077136 48.625 4.375 C50.10468262 4.70443604 50.10468262 4.70443604 51.61425781 5.04052734 C80.51222723 11.64564394 108.41992147 23.11969791 132.625 40.375 C133.18461426 40.77315918 133.74422852 41.17131836 134.32080078 41.58154297 C137.8218359 44.09735157 141.23798269 46.70832017 144.625 49.375 C145.58148438 50.12652344 146.53796875 50.87804687 147.5234375 51.65234375 C153.25610208 56.24632838 158.53948558 61.07856563 163.625 66.375 C164.8625 67.6125 164.8625 67.6125 166.125 68.875 C167.3625 70.1125 167.3625 70.1125 168.625 71.375 C169.18445313 71.89964844 169.74390625 72.42429687 170.3203125 72.96484375 C207.93646993 108.98193376 231.56666584 166.36999223 232.91474915 217.97415161 C232.99406333 222.56640864 233.009742 227.15714059 233 231.75 C232.99918427 233.20132828 232.99918427 233.20132828 232.99835205 234.68197632 C232.95822447 250.24714543 232.07922864 265.1429744 228.625 280.375 C228.40537598 281.36145508 228.18575195 282.34791016 227.95947266 283.36425781 C218.73869154 323.70599091 199.50211452 358.20245622 172.625 389.375 C171.97402344 390.15101563 171.32304687 390.92703125 170.65234375 391.7265625 C167.28185761 395.70358259 163.73226205 399.19088282 159.75 402.5546875 C158.32434979 403.77592463 156.92811315 405.032291 155.5625 406.3203125 C141.2890736 419.75121025 124.9014909 430.25444974 107.625 439.375 C106.46629395 439.99133301 106.46629395 439.99133301 105.28417969 440.62011719 C84.18024898 451.67802991 61.08094139 458.52578032 37.625 462.375 C36.54001221 462.55901367 35.45502441 462.74302734 34.3371582 462.93261719 C23.33117985 464.61534632 12.42710829 464.7734688 1.3125 464.75 C0.34245026 464.74945618 -0.62759949 464.74891235 -1.62704468 464.74835205 C-17.21128224 464.708258 -32.1243004 463.83346342 -47.375 460.375 C-48.36145508 460.15537598 -49.34791016 459.93575195 -50.36425781 459.70947266 C-90.70599091 450.48869154 -125.20245622 431.25211452 -156.375 404.375 C-157.15101563 403.72402344 -157.92703125 403.07304687 -158.7265625 402.40234375 C-162.70358259 399.03185761 -166.19088282 395.48226205 -169.5546875 391.5 C-170.77592463 390.07434979 -172.032291 388.67811315 -173.3203125 387.3125 C-186.75121025 373.0390736 -197.25444974 356.6514909 -206.375 339.375 C-206.99133301 338.21629395 -206.99133301 338.21629395 -207.62011719 337.03417969 C-224.01074932 305.75280014 -231.77252841 270.67470218 -231.69067383 235.52270508 C-231.68752306 232.70809787 -231.71104324 229.89455585 -231.73632812 227.08007812 C-231.79682872 210.00802049 -229.76362519 193.38975608 -225.625 176.8125 C-225.23658936 175.24338867 -225.23658936 175.24338867 -224.84033203 173.64257812 C-215.47639605 136.85848532 -196.94076138 102.48064478 -170.75 74.92578125 C-168.35491093 72.42068372 -168.35491093 72.42068372 -166.2890625 69.74609375 C-164.55531186 67.59836592 -162.85352392 65.89733079 -160.75 64.125 C-158.55737492 62.25987083 -156.39482227 60.39370237 -154.30078125 58.41796875 C-140.02913749 44.993159 -123.64677505 34.49306068 -106.375 25.375 C-105.6025293 24.96411133 -104.83005859 24.55322266 -104.03417969 24.12988281 C-71.83253642 7.25705634 -36.11002262 -0.07659362 0 0 Z " fill="#33D9B2" transform="translate(255.375,23.625)"/>
<path d="M0 0 C1.3039119 -0.0112793 2.60782379 -0.02255859 3.95124817 -0.03417969 C5.39438088 -0.02640263 6.8375114 -0.01820996 8.28063965 -0.00964355 C9.80182058 -0.01506422 11.32299626 -0.02218657 12.84416199 -0.03088379 C16.97435807 -0.04912693 21.10415472 -0.0420457 25.23435783 -0.02936745 C29.5553381 -0.01924484 33.87628402 -0.02863106 38.19726562 -0.03491211 C45.45379786 -0.04219068 52.71016729 -0.03259535 59.9666748 -0.0135498 C68.35785739 0.00821941 76.74865123 0.00116818 85.13982439 -0.02085543 C92.34248957 -0.03900349 99.54503768 -0.04157068 106.74771833 -0.03110075 C111.05036765 -0.02486252 115.35283421 -0.02403914 119.6554718 -0.0372467 C123.7005058 -0.04879604 127.7450383 -0.04079672 131.79001808 -0.01766968 C133.27511067 -0.01237761 134.76024542 -0.01390493 136.24532127 -0.02272034 C138.27119827 -0.03363781 140.29716743 -0.01752415 142.32299805 0 C143.4571389 0.0015081 144.59127975 0.0030162 145.75978851 0.00457001 C149.32909045 0.62374277 150.51275358 1.63390044 152.66149902 4.50793457 C153.16149902 8.00793457 153.16149902 8.00793457 152.66149902 11.50793457 C150.79441398 13.87290896 149.34088471 15.16824172 146.66149902 16.50793457 C144.79894788 16.60154948 142.93298627 16.6298453 141.06808472 16.62818909 C139.2880861 16.63025533 139.2880861 16.63025533 137.47212791 16.63236332 C135.50151359 16.62696616 135.50151359 16.62696616 133.49108887 16.62145996 C132.07910986 16.62115375 130.66713069 16.6212869 129.25515175 16.62182522 C125.46580863 16.62205145 121.67649694 16.61624562 117.88716125 16.60921478 C114.33448179 16.60352986 110.78181007 16.60325221 107.22912598 16.60253906 C96.83157948 16.59728677 86.43403886 16.58332569 76.03649902 16.57043457 C41.20087402 16.53949707 41.20087402 16.53949707 5.66149902 16.50793457 C5.66149902 84.15793457 5.66149902 151.80793457 5.66149902 221.50793457 C73.31149902 221.50793457 140.96149902 221.50793457 210.66149902 221.50793457 C210.42392355 174.67142444 210.42392355 174.67142444 210.12097168 127.83532715 C210.09387207 118.78076172 210.09387207 118.78076172 210.08883667 114.5431366 C210.08324195 111.5805826 210.06074102 108.61867239 210.02804565 105.65629578 C209.98689043 101.87735462 209.97455094 98.09934956 209.98306537 94.32020509 C209.98128505 92.93345094 209.96938429 91.5466641 209.94620824 90.16010249 C209.78198798 79.85650207 209.78198798 79.85650207 211.93317795 76.55805016 C214.52911421 74.24790766 216.31709911 73.51482257 219.78649902 73.44543457 C223.10743675 74.67273764 224.46352469 75.74586423 226.66149902 78.50793457 C227.16486359 81.39402771 227.16486359 81.39402771 227.16943359 84.80847168 C227.18071289 86.10396942 227.19199219 87.39946716 227.20361328 88.73422241 C227.19583623 90.16790995 227.18764357 91.60159528 227.17907715 93.03527832 C227.18449786 94.5466072 227.19162023 96.0579308 227.20031738 97.56924438 C227.21856005 101.67258269 227.2114795 105.77551892 227.19880104 109.87886429 C227.18867818 114.17181741 227.19806473 118.46473597 227.2043457 122.75769043 C227.2116242 129.96714462 227.20202914 137.17643494 227.1829834 144.38586426 C227.16121419 152.72251614 227.16826543 161.05877673 227.19028902 169.39541912 C227.2084373 176.55137578 227.21100417 183.7072146 227.20053434 190.86318684 C227.19429623 195.1378909 227.19347242 199.41241101 227.2066803 203.68710327 C227.21822994 207.70587365 227.21022977 211.72413926 227.18710327 215.74285507 C227.18181137 217.21827226 227.18333825 218.69373189 227.19215393 220.16913223 C227.20307205 222.18187194 227.18695718 224.19470442 227.16943359 226.20739746 C227.16792549 227.33416397 227.16641739 228.46093048 227.16486359 229.62184143 C226.54853617 233.15561884 225.42808733 234.30244438 222.66149902 236.50793457 C219.32660078 238.17538369 215.58006073 237.65588612 211.9127655 237.65510559 C210.9957852 237.65878228 210.0788049 237.66245897 209.13403732 237.66624707 C206.04251833 237.67731417 202.95103293 237.68113285 199.85949707 237.68493652 C197.65059298 237.69119883 195.44168995 237.69784542 193.23278809 237.70484924 C187.21830347 237.72227929 181.20382682 237.73281621 175.18932319 237.74105477 C171.43470924 237.74620007 167.6800978 237.75227598 163.92548561 237.7585659 C153.53273566 237.77543766 143.13998729 237.7900731 132.74722576 237.79731464 C130.04978624 237.79922458 127.35234672 237.8011449 124.65490723 237.80310059 C123.64923857 237.8038262 123.64923857 237.8038262 122.62325338 237.80456647 C111.75970795 237.81286879 100.89627256 237.83820896 90.03277519 237.87068126 C78.8828597 237.90373837 67.73298408 237.92142927 56.58301574 237.92495888 C50.32130423 237.92731391 44.05976663 237.93633325 37.79810143 237.96142006 C31.90890762 237.98463306 26.02000308 237.98896125 20.13077545 237.97865868 C17.96719974 237.97816157 15.80361011 237.98453305 13.64007759 237.99821472 C10.69009607 238.01582849 7.74116451 238.0088792 4.79118347 237.99568176 C3.93164855 238.00665101 3.07211363 238.01762025 2.1865322 238.0289219 C-1.8576802 237.98513191 -3.84899721 237.81801072 -7.34660625 235.60245037 C-11.10042314 231.65523936 -10.48676372 227.85612691 -10.485672 222.67654419 C-10.48934869 221.75069122 -10.49302537 220.82483824 -10.49681348 219.87092912 C-10.5078808 216.74943714 -10.51169928 213.62797842 -10.51550293 210.50646973 C-10.52176518 208.27623895 -10.52841176 206.04600921 -10.53541565 203.81578064 C-10.55284526 197.74351374 -10.5633823 191.67125472 -10.57162118 185.59896898 C-10.57676614 181.80885079 -10.58284203 178.01873507 -10.58913231 174.22861862 C-10.60600334 163.73893122 -10.62063925 153.24924497 -10.62788105 142.75954628 C-10.629791 140.03700382 -10.63171133 137.31446137 -10.63366699 134.59191895 C-10.63415073 133.91522964 -10.63463447 133.23854033 -10.63513287 132.54134528 C-10.64343737 121.57366039 -10.66878157 110.60608442 -10.70124767 99.63844712 C-10.73429344 88.38344149 -10.75199452 77.12848923 -10.75552529 65.8734287 C-10.75788132 59.55194606 -10.76691371 53.23063559 -10.79198647 46.90919876 C-10.81518188 40.96501686 -10.81953483 35.02112154 -10.80922508 29.0769062 C-10.80872756 26.8919473 -10.81511118 24.70697469 -10.82878113 22.52205849 C-10.84636641 19.54545491 -10.83945988 16.56989487 -10.82624817 13.59329224 C-10.83721741 12.72306258 -10.84818666 11.85283292 -10.85948831 10.95623267 C-10.81963481 7.25246493 -10.74160902 5.13346257 -8.70417309 1.97184563 C-5.62564416 0.06680878 -3.61612109 0.00480847 0 0 Z " fill="#FCFEFE" transform="translate(146.3385009765625,138.4920654296875)"/>
<path d="M0 0 C2.40209961 1.60180664 2.40209961 1.60180664 4.71484375 3.84765625 C6.00430908 5.08153076 6.00430908 5.08153076 7.31982422 6.34033203 C8.64651123 7.65686768 8.64651123 7.65686768 10 9 C10.8780127 9.85319824 11.75602539 10.70639648 12.66064453 11.58544922 C15.31546908 14.18267692 17.94219191 16.8054854 20.5625 19.4375 C21.46291016 20.33404297 22.36332031 21.23058594 23.29101562 22.15429688 C24.14501953 23.00958984 24.99902344 23.86488281 25.87890625 24.74609375 C27.03241577 25.90129517 27.03241577 25.90129517 28.20922852 27.07983398 C30.32827429 29.35199418 30.91835462 30.57136176 31.5 33.625 C30.96476646 37.23782641 30.55277144 37.85522779 28.20837402 40.43843079 C27.56780563 41.14452799 26.92723724 41.85062519 26.26725769 42.57811928 C21.6124898 47.55033424 16.90183304 52.46528109 12.16601562 57.36010742 C11.58610304 57.96068214 11.00619045 58.56125687 10.40870476 59.18003082 C-1.07281203 71.0700653 -12.6373847 82.87854304 -24.23047638 94.65972424 C-31.58539951 102.13699545 -38.9141911 109.6365524 -46.18212891 117.19848633 C-52.55374892 123.82776195 -58.97243492 130.40724883 -65.44805574 136.93502694 C-68.85738961 140.37488381 -72.24192351 143.8320364 -75.57060242 147.35014915 C-94.27840072 167.07836393 -115.93556346 183.06663052 -144.20019245 185.16320264 C-147.52905179 185.23276348 -149.60065812 185.23960513 -152.5 183.5 C-154.87824767 179.53625389 -154.49604152 175.27996434 -153.53756714 170.87451172 C-152.88608322 168.6210208 -152.16359061 166.40630722 -151.40234375 164.1875 C-151.13039688 163.37434326 -150.85845001 162.56118652 -150.57826233 161.72338867 C-150.00186359 160.01366866 -149.41910831 158.30607972 -148.83032227 156.60058594 C-147.94242513 154.01434577 -147.088535 151.41849818 -146.23632812 148.8203125 C-145.66870401 147.15034778 -145.09910569 145.48105254 -144.52734375 143.8125 C-144.27911362 143.04768311 -144.03088348 142.28286621 -143.77513123 141.49487305 C-139.88299193 130.49067409 -129.86462622 122.72017451 -121.77832031 114.64892578 C-120.55043737 113.41968566 -119.32276679 112.19023337 -118.09529114 110.96058655 C-114.78182203 107.64258318 -111.46522748 104.32772091 -108.14790058 101.01357508 C-104.67113404 97.53935005 -101.19681899 94.06267483 -97.72210693 90.58639526 C-91.89352014 84.75599321 -86.06283677 78.92769408 -80.23095703 73.10058594 C-73.48693878 66.36202184 -66.74654771 59.61984564 -60.00800443 52.87580693 C-54.21607338 47.07934162 -48.42220061 41.28482258 -42.62669253 35.4919337 C-39.16766588 32.03446645 -35.70931945 28.57632607 -32.25272369 25.11642838 C-29.00788633 21.86870735 -25.76062201 18.62343283 -22.51144981 15.38004875 C-21.31853913 14.18846244 -20.12648254 12.9960204 -18.93533516 11.80267143 C-17.31223517 10.17684768 -15.68610065 8.55412154 -14.05914307 6.93215942 C-13.14920719 6.02260057 -12.23927132 5.11304173 -11.30176163 4.17592049 C-7.46693576 0.55075094 -5.2644735 -0.61922816 0 0 Z " fill="#FAFEFD" transform="translate(364,121)"/>
<path d="M0 0 C4.00374431 1.83692389 6.71957934 4.49117916 9.75 7.625 C10.25660156 8.140625 10.76320313 8.65625 11.28515625 9.1875 C12.52803902 10.45383339 13.76465276 11.7263144 15 13 C13.55917699 16.28131538 11.77599652 18.49435085 9.27404785 21.04721069 C8.10992622 22.24146919 8.10992622 22.24146919 6.92228699 23.45985413 C6.06943619 24.32436691 5.21658539 25.1888797 4.33789062 26.07958984 C3.43992264 26.9971254 2.54195465 27.91466095 1.61677551 28.86000061 C-1.36208869 31.90153751 -4.35199107 34.93209032 -7.34375 37.9609375 C-8.10972032 38.73679978 -8.10972032 38.73679978 -8.89116478 39.52833605 C-13.71842994 44.41720907 -18.54982717 49.30196331 -23.39102936 54.17703819 C-29.55617666 60.38584371 -35.70047844 66.61374204 -41.8172946 72.87017858 C-46.13344209 77.28140764 -50.47290119 81.66885777 -54.82961702 86.04001963 C-57.42329367 88.64352812 -60.00622021 91.25581051 -62.56437683 93.89426804 C-73.79987168 105.46600312 -83.56552152 115.29517697 -100 118 C-100.99 118 -101.98 118 -103 118 C-102.39511976 114.97559882 -101.73227889 111.99479382 -101 109 C-100.77953884 108.08366917 -100.55907768 107.16733833 -100.33193588 106.2232399 C-97.923817 97.73167376 -93.91249122 92.80223069 -87.64160156 86.73339844 C-86.68363797 85.77769723 -85.72744398 84.82021951 -84.77287292 83.86112976 C-82.20193995 81.28792161 -79.60728063 78.7399627 -77.00730228 76.19615078 C-74.28492765 73.52412824 -71.5855152 70.82910026 -68.88348389 68.13653564 C-63.77484337 63.05266055 -58.64617636 57.98950664 -53.50981212 52.93365979 C-47.65839114 47.17196999 -41.82994221 41.38727319 -36.00321627 35.60062742 C-24.02734223 23.70814832 -12.02325526 11.84457897 0 0 Z " fill="#34D9B2" transform="translate(334,167)"/>
<path d="M0 0 C4.07376031 1.61010527 6.76507069 4.53822271 9.75 7.625 C10.25660156 8.140625 10.76320313 8.65625 11.28515625 9.1875 C12.52803902 10.45383339 13.76465276 11.7263144 15 13 C13.38989473 17.07376031 10.46177729 19.76507069 7.375 22.75 C6.859375 23.25660156 6.34375 23.76320312 5.8125 24.28515625 C4.54616661 25.52803902 3.2736856 26.76465276 2 28 C-2.07376031 26.38989473 -4.76507069 23.46177729 -7.75 20.375 C-8.25660156 19.859375 -8.76320313 19.34375 -9.28515625 18.8125 C-10.52803902 17.54616661 -11.76465276 16.2736856 -13 15 C-11.38989473 10.92623969 -8.46177729 8.23492931 -5.375 5.25 C-4.859375 4.74339844 -4.34375 4.23679688 -3.8125 3.71484375 C-2.54616661 2.47196098 -1.2736856 1.23534724 0 0 Z " fill="#34D9B2" transform="translate(360,141)"/>
</svg>
